<svg width="16" height="16" viewBox="0 0 16 16" fill="none" xmlns="http://www.w3.org/2000/svg">
<path fill-rule="evenodd" clip-rule="evenodd" d="M8.00008 0.666748C3.94999 0.666748 0.666748 3.94999 0.666748 8.00008C0.666748 12.0502 3.94999 15.3334 8.00008 15.3334C12.0502 15.3334 15.3334 12.0502 15.3334 8.00008C15.3334 3.94999 12.0502 0.666748 8.00008 0.666748ZM11.4715 6.47149C11.7318 6.21114 11.7318 5.78903 11.4715 5.52868C11.2111 5.26833 10.789 5.26833 10.5287 5.52868L7.00008 9.05727L5.47149 7.52868C5.21114 7.26833 4.78903 7.26833 4.52868 7.52868C4.26833 7.78903 4.26833 8.21114 4.52868 8.47149L6.52868 10.4715C6.78903 10.7318 7.21114 10.7318 7.47149 10.4715L11.4715 6.47149Z" fill="#51FFA1"/>
</svg>
