<svg width="16" height="16" viewBox="0 0 16 16" fill="none" xmlns="http://www.w3.org/2000/svg">
<path fill-rule="evenodd" clip-rule="evenodd" d="M8.10772 5.33329H12.5591C12.9105 5.33328 13.2137 5.33327 13.4634 5.35367C13.727 5.37521 13.9891 5.42275 14.2414 5.55128C14.6177 5.74303 14.9237 6.04899 15.1154 6.42531C15.244 6.67757 15.2915 6.93971 15.313 7.20327C15.3334 7.45299 15.3334 7.75617 15.3334 8.10761V12.559C15.3334 12.9104 15.3334 13.2136 15.313 13.4633C15.2915 13.7269 15.244 13.989 15.1154 14.2413C14.9237 14.6176 14.6177 14.9236 14.2414 15.1153C13.9891 15.2438 13.727 15.2914 13.4634 15.3129C13.2137 15.3333 12.9105 15.3333 12.5591 15.3333H8.10773C7.75629 15.3333 7.45311 15.3333 7.2034 15.3129C6.93983 15.2914 6.67769 15.2438 6.42543 15.1153C6.04911 14.9236 5.74315 14.6176 5.5514 14.2413C5.42287 13.989 5.37533 13.7269 5.35379 13.4633C5.33339 13.2136 5.3334 12.9104 5.33341 12.559V8.1076C5.3334 7.75616 5.33339 7.45299 5.35379 7.20327C5.37533 6.93971 5.42287 6.67757 5.5514 6.42531C5.74315 6.04899 6.04911 5.74303 6.42543 5.55128C6.67769 5.42275 6.93983 5.37521 7.2034 5.35367C7.45311 5.33327 7.75629 5.33328 8.10772 5.33329Z" fill="white" fill-opacity="0.6"/>
<path d="M7.89245 0.666627H3.44105C3.08964 0.666615 2.78644 0.666605 2.53673 0.687007C2.27317 0.708541 2.01102 0.756085 1.75877 0.884614C1.38244 1.07636 1.07648 1.38232 0.884737 1.75865C0.756207 2.0109 0.708663 2.27305 0.687129 2.53661C0.666727 2.78631 0.666737 3.08948 0.666749 3.44089V7.89232C0.666737 8.24374 0.666727 8.54694 0.687129 8.79665C0.708663 9.06021 0.756207 9.32236 0.884737 9.57461C1.07648 9.95093 1.38244 10.2569 1.75877 10.4486C2.01102 10.5772 2.27317 10.6247 2.53673 10.6462C2.78644 10.6667 3.08962 10.6666 3.44105 10.6666H4.00008L4.00007 8.0794C3.99999 7.75364 3.99991 7.40043 4.02489 7.09472C4.05316 6.7487 4.12313 6.29155 4.36339 5.82001C4.68297 5.1928 5.1929 4.68287 5.82011 4.36329C6.29165 4.12303 6.7488 4.05306 7.09482 4.02479C7.40053 3.99981 7.75373 3.99989 8.07948 3.99997L10.6667 3.99998V3.44095C10.6668 3.08952 10.6668 2.78632 10.6464 2.53661C10.6248 2.27305 10.5773 2.0109 10.4488 1.75865C10.257 1.38232 9.95105 1.07636 9.57473 0.884614C9.32248 0.756085 9.06033 0.708541 8.79677 0.687007C8.54706 0.666605 8.24386 0.666615 7.89245 0.666627Z" fill="white" fill-opacity="0.6"/>
</svg>
