<svg width="16" height="16" viewBox="0 0 16 16" fill="none" xmlns="http://www.w3.org/2000/svg">
<path fill-rule="evenodd" clip-rule="evenodd" d="M8.00008 0.666626C12.0502 0.666626 15.3334 3.94987 15.3334 7.99996C15.3334 12.05 12.0502 15.3333 8.00008 15.3333C3.94999 15.3333 0.666748 12.05 0.666748 7.99996C0.666748 3.94987 3.94999 0.666626 8.00008 0.666626ZM2.0367 7.33329C2.31209 4.84212 4.11262 2.81061 6.48389 2.19318C5.46615 3.72291 4.84961 5.49117 4.70014 7.33329H2.0367ZM2.0367 8.66663C2.31209 11.1578 4.11262 13.1893 6.48389 13.8067C5.46615 12.277 4.84961 10.5087 4.70014 8.66663H2.0367ZM9.51628 13.8067C11.8875 13.1893 13.6881 11.1578 13.9635 8.66663H11.3C11.1505 10.5087 10.534 12.277 9.51628 13.8067ZM13.9635 7.33329H11.3C11.1505 5.49117 10.534 3.72291 9.51628 2.19318C11.8875 2.81061 13.6881 4.84212 13.9635 7.33329ZM8.00008 2.36716C9.1132 3.80125 9.79422 5.52451 9.96169 7.33329H6.03848C6.20594 5.52451 6.88696 3.80125 8.00008 2.36716ZM8.00008 13.6328C6.88696 12.1987 6.20594 10.4754 6.03848 8.66663H9.96169C9.79422 10.4754 9.1132 12.1987 8.00008 13.6328Z" fill="white" fill-opacity="0.6"/>
</svg>
