<svg width="24" height="20" viewBox="0 0 24 20" fill="none" xmlns="http://www.w3.org/2000/svg">
<path fill-rule="evenodd" clip-rule="evenodd" d="M9.57774 15.2186C8.20422 17.3234 5.90258 19.9871 2.83997 19.9871C1.39218 19.9871 4.62299e-05 19.3912 1.11278e-09 16.8021C-0.000115571 10.2083 9.00212 0.00099318 17.3548 0.000854494C22.1065 0.000762037 24 3.29754 24 7.04142C24 11.847 20.8816 17.3419 17.782 17.3419C16.7983 17.3419 16.3156 16.8017 16.3156 15.9451C16.3156 15.7215 16.3526 15.4793 16.427 15.2186C15.3689 17.0252 13.3272 18.7019 11.4153 18.7019C10.0232 18.7019 9.31793 17.8263 9.31791 16.5969C9.31791 16.1498 9.41072 15.6843 9.57774 15.2186ZM15.7775 5.07074C15.0215 5.07208 14.506 5.71445 14.5076 6.63084C14.5092 7.54723 15.027 8.20613 15.7831 8.20481C16.5209 8.2035 17.0361 7.5428 17.0345 6.62638C17.0329 5.70999 16.5153 5.06944 15.7775 5.07074ZM19.7881 5.06637C19.032 5.06771 18.5166 5.71008 18.5182 6.62647C18.5198 7.54287 19.0373 8.20176 19.7936 8.20045C20.5315 8.19915 21.0467 7.53843 21.0451 6.62201C21.0434 5.70562 20.5259 5.06507 19.7881 5.06637Z" fill="#AB9FF2"/>
</svg>
