<svg width="16" height="16" viewBox="0 0 16 16" fill="none" xmlns="http://www.w3.org/2000/svg">
<path fill-rule="evenodd" clip-rule="evenodd" d="M6.66659 1.33337C3.72107 1.33337 1.33325 3.72119 1.33325 6.66671C1.33325 9.61223 3.72107 12 6.66659 12C7.89906 12 9.03389 11.582 9.93702 10.8799L13.5285 14.4714C13.7889 14.7318 14.211 14.7318 14.4713 14.4714C14.7317 14.2111 14.7317 13.789 14.4713 13.5286L10.8798 9.93714C11.5819 9.03401 11.9999 7.89918 11.9999 6.66671C11.9999 3.72119 9.6121 1.33337 6.66659 1.33337ZM2.66659 6.66671C2.66659 4.45757 4.45745 2.66671 6.66659 2.66671C8.87572 2.66671 10.6666 4.45757 10.6666 6.66671C10.6666 8.87585 8.87572 10.6667 6.66659 10.6667C4.45745 10.6667 2.66659 8.87585 2.66659 6.66671Z" fill="white" fill-opacity="0.56"/>
</svg>
