<svg width="56" height="57" viewBox="0 0 56 57" fill="none" xmlns="http://www.w3.org/2000/svg">
<g clip-path="url(#clip0_5_10216)">
<path d="M28 56.5C43.5168 56.5 56 44.0168 56 28.5C56 12.9832 43.5168 0.5 28 0.5C12.4832 0.5 0 12.9832 0 28.5C0 44.0168 12.4832 56.5 28 56.5Z" fill="black"/>
<path fill-rule="evenodd" clip-rule="evenodd" d="M17.2779 36.3604C17.3821 36.245 17.5076 36.1514 17.6485 36.089C17.7893 36.0235 17.9394 35.9892 18.0955 35.9861H43.753C43.8602 35.9861 43.9674 36.0204 44.0562 36.0828C44.148 36.1452 44.2185 36.2294 44.2613 36.3323C44.3042 36.4353 44.3195 36.5444 44.3012 36.6536C44.2828 36.7628 44.2338 36.8657 44.1634 36.9468L38.722 43.0979C38.6179 43.2133 38.4923 43.3069 38.3515 43.3693C38.2106 43.4348 38.0606 43.4691 37.9044 43.4722H12.2316C12.1244 43.4722 12.0172 43.4379 11.9284 43.3755C11.8396 43.3131 11.7661 43.2289 11.7233 43.126C11.6804 43.0231 11.6681 42.9139 11.6835 42.8047C11.6988 42.6955 11.7508 42.5926 11.8243 42.5115L17.2779 36.3604ZM44.1848 31.2605C44.2583 31.3416 44.3073 31.4445 44.3256 31.5537C44.344 31.6629 44.3287 31.7752 44.2858 31.875C44.243 31.9779 44.1725 32.0621 44.0807 32.1245C43.9919 32.1869 43.8847 32.2181 43.7745 32.2212L18.1108 32.2431C17.9577 32.2399 17.8046 32.2056 17.6638 32.1401C17.5229 32.0746 17.3974 31.9842 17.2933 31.8687L11.8151 25.7395C11.7416 25.6584 11.6926 25.5555 11.6743 25.4463C11.6559 25.3371 11.6712 25.2248 11.7141 25.125C11.7569 25.0221 11.8274 24.9379 11.9192 24.8755C12.008 24.8131 12.1152 24.7819 12.2224 24.7788L37.8891 24.7569C38.0422 24.7601 38.1953 24.7944 38.3361 24.8599C38.477 24.9254 38.6025 25.0158 38.7067 25.1312L44.1848 31.2605ZM17.2779 13.9021C17.3821 13.7867 17.5076 13.6931 17.6485 13.6307C17.7893 13.5652 17.9394 13.5309 18.0955 13.5278L43.7683 13.5496C43.8755 13.5496 43.9827 13.5839 44.0715 13.6463C44.1603 13.7087 44.2338 13.7929 44.2767 13.8958C44.3195 13.9988 44.3348 14.1079 44.3165 14.2171C44.2981 14.3263 44.2491 14.4292 44.1756 14.5103L38.722 20.6396C38.6179 20.755 38.4923 20.8486 38.3515 20.9109C38.2106 20.9765 38.0606 21.0108 37.9044 21.0139H12.2316C12.1244 21.0139 12.0172 20.9796 11.9284 20.9172C11.8396 20.8548 11.7661 20.7706 11.7233 20.6677C11.6804 20.5647 11.6681 20.4555 11.6835 20.3464C11.7018 20.2372 11.7508 20.1343 11.8243 20.0532L17.2779 13.9021Z" fill="url(#paint0_linear_5_10216)"/>
</g>
<defs>
<linearGradient id="paint0_linear_5_10216" x1="12.6539" y1="44.1319" x2="43.9021" y2="13.4558" gradientUnits="userSpaceOnUse">
<stop stop-color="#9945FF"/>
<stop offset="0.14" stop-color="#8A53F4"/>
<stop offset="0.42" stop-color="#6377D6"/>
<stop offset="0.79" stop-color="#24B0A7"/>
<stop offset="0.99" stop-color="#00D18C"/>
<stop offset="1" stop-color="#00D18C"/>
</linearGradient>
<clipPath id="clip0_5_10216">
<rect width="56" height="56" fill="white" transform="translate(0 0.5)"/>
</clipPath>
</defs>
</svg>
