<svg width="14" height="14" viewBox="0 0 14 14" fill="none" xmlns="http://www.w3.org/2000/svg">
<path fill-rule="evenodd" clip-rule="evenodd" d="M0.333321 8.99986L0.333331 9.0036V10.8924C0.33332 11.2438 0.33331 11.547 0.353712 11.7967C0.375246 12.0603 0.42279 12.3224 0.551319 12.5747C0.743066 12.951 1.04903 13.2569 1.42535 13.4487C1.6776 13.5772 1.93975 13.6248 2.20331 13.6463C2.45302 13.6667 2.7562 13.6667 3.10762 13.6667L10.8924 13.6667C11.2438 13.6667 11.547 13.6667 11.7967 13.6463C12.0602 13.6248 12.3224 13.5772 12.5746 13.4487C12.951 13.2569 13.2569 12.951 13.4487 12.5747C13.5772 12.3224 13.6248 12.0603 13.6463 11.7967C13.6667 11.547 13.6667 11.2438 13.6667 10.8924V6.44097C13.6667 6.08954 13.6667 5.78637 13.6463 5.53666C13.6248 5.2731 13.5772 5.01095 13.4487 4.7587C13.2569 4.38237 12.951 4.07641 12.5746 3.88467C12.3224 3.75614 12.0602 3.70859 11.7967 3.68706C11.547 3.66666 11.2438 3.66667 10.8924 3.66668H10.3333L10.3333 1.97324C10.3333 1.71933 10.3334 1.48522 10.316 1.29458C10.2979 1.09702 10.255 0.84778 10.0997 0.621219C9.89561 0.323497 9.57951 0.12125 9.22366 0.0606951C8.95287 0.0146143 8.7086 0.0801146 8.52166 0.146529C8.34127 0.210615 8.12871 0.308739 7.89818 0.415161L1.88199 3.19178C1.51078 3.3625 1.18446 3.51257 0.935427 3.75596C0.717378 3.96906 0.550937 4.22919 0.448825 4.51647C0.332201 4.84458 0.332688 5.20375 0.333244 5.61233L0.333321 8.99986ZM8.96802 1.40293C8.85215 1.44409 8.69582 1.51552 8.43236 1.63711L4.03497 3.66668L8.99999 3.66668V2.0003C8.99999 1.71013 8.99933 1.53826 8.98815 1.41581L8.98624 1.39662L8.96802 1.40293ZM10 7.66668C9.44771 7.66668 9 8.11439 9 8.66668C9 9.21896 9.44771 9.66668 10 9.66668C10.5523 9.66668 11 9.21896 11 8.66668C11 8.11439 10.5523 7.66668 10 7.66668Z" fill="#0F0F0F"/>
</svg>
